C:\GBW_MyPrograms\PredSim\Subjects\Ines_test\Reus\Reus_v1.mot
version=1
nRows=10
nColumns=31
inDegrees=yes
endheader
                time	         pelvis_tilt	           pelvis_tx	           pelvis_ty	       hip_flexion_r	        knee_angle_r	       ankle_angle_r	       hip_flexion_l	        knee_angle_l	       ankle_angle_l	    lumbar_extension	          arm_flex_r	          arm_flex_l	hamstrings_r/activation	bifemsh_r/activation	glut_max_r/activation	iliopsoas_r/activation	rect_fem_r/activation	  vasti_r/activation	gastroc_r/activation	 soleus_r/activation	tib_ant_r/activation	hamstrings_l/activation	bifemsh_l/activation	glut_max_l/activation	iliopsoas_l/activation	rect_fem_l/activation	  vasti_l/activation	gastroc_l/activation	 soleus_l/activation	tib_ant_l/activation	
          1.03608459	         -7.23116618	          2.76722991	          2.19926368	         34.15685265	        -27.58490542	         -6.66725359	        -19.61207199	          9.97883747	         -8.97138739	          3.70994544	         -5.11476288	         -5.11476283	          0.15672369	          0.09092742	          0.61839581	          0.18343684	          0.83994744	          0.44459139	          0.08628556	          0.21045779	          0.83396689	          0.04386857	          0.96943616	          0.07932718	          0.99614046	          0.06275326	          0.13537985	          0.98878402	          0.82402408	          0.03099018	
          1.04644544	         -7.04333457	          2.79804866	          2.19770114	         32.62385162	        -22.52634780	         -8.73313176	        -19.57135110	          8.13786560	         -8.93473692	          3.62111896	         -5.25240165	         -5.25240156	          0.13398657	          0.09290385	          0.52939548	          0.15718283	          0.86939583	          0.60443065	          0.07486782	          0.18271876	          0.89840811	          0.03895843	          0.97765168	          0.06834306	          0.99658856	          0.05399618	          0.11716848	          0.98817551	          0.89408657	          0.02831748	
          1.05680628	         -6.86018872	          2.82945501	          2.19569915	         31.09440040	        -18.26898229	        -10.65869399	        -19.57993125	          6.40657928	         -9.13223661	          3.56871518	         -5.42835310	         -5.42835294	          0.11560548	          0.08681953	          0.63952195	          0.13444338	          0.80107255	          0.75268139	          0.06493754	          0.16079672	          0.93514384	          0.04229860	          0.98035411	          0.05932599	          0.99612976	          0.04683850	          0.10190601	          0.98832607	          0.93640650	          0.02505917	
          1.06716713	         -6.72106653	          2.86124677	          2.19328113	         29.74186743	        -15.48227129	        -11.56048621	        -19.56713879	          4.73324155	         -9.50925659	          3.58950909	         -5.63909610	         -5.63909596	          0.42953219	          0.07967962	          0.78572657	          0.11498605	          0.70143311	          0.85190116	          0.05631443	          0.14597042	          0.84203427	          0.27262905	          0.97862284	          0.05254253	          0.99444861	          0.04108898	          0.08929304	          0.98805572	          0.96157239	          0.02198364	
          1.07752797	         -6.55890533	          2.89308894	          2.19101572	         28.63517742	        -14.90410454	        -10.27123793	        -19.55270206	          3.04828764	        -10.07446515	          3.58648542	         -5.84715270	         -5.84715255	          0.59510532	          0.07338280	          0.87246806	          0.09824191	          0.61545476	          0.91122748	          0.04892121	          0.13780862	          0.79616312	          0.31243626	          0.97106775	          0.04705980	          0.99210549	          0.03695388	          0.07889261	          0.98753296	          0.97630958	          0.01925627	
          1.08788882	         -6.39290444	          2.92426705	          2.18969455	         27.81401675	        -15.63620357	         -7.66732067	        -19.40537952	          1.21461607	        -10.89378200	          3.54687901	         -6.01153616	         -6.01153613	          0.54410518	          0.06770507	          0.92410505	          0.08391028	          0.54143167	          0.94662906	          0.04262110	          0.12270879	          0.76101838	          0.27707722	          0.95579646	          0.04594842	          0.98880702	          0.03445295	          0.07058834	          0.98668331	          0.98463167	          0.01688626	
          1.09824966	         -6.30770337	          2.95403257	          2.18983635	         27.43207508	        -16.81153944	         -5.76949169	        -18.92118488	         -0.90121327	        -12.05432005	          3.53434574	         -6.10460199	         -6.10460196	          0.46670039	          0.06304651	          0.95428101	          0.07180664	          0.72476318	          0.96752509	          0.03743485	          0.11565520	          0.72700070	          0.23785995	          0.95283256	          0.04449344	          0.99088368	          0.07088396	          0.06410140	          0.98484648	          0.98838355	          0.01489638	
          1.10861051	         -6.18417190	          2.98279572	          2.19143938	         27.23689522	        -18.30350599	         -4.05366851	        -18.26938214	         -3.22007874	        -13.65094078	          3.42747987	         -6.12416753	         -6.12416760	          0.40275789	          0.06046715	          0.94691533	          0.06204003	          0.83436667	          0.97937718	          0.03345638	          0.11747992	          0.71465900	          0.20385892	          0.95027390	          0.03971892	          0.99241893	          0.41235637	          0.05858883	          0.98081109	          0.98948610	          0.01343795	
          1.11897136	         -5.94595834	          3.01117445	          2.19411647	         26.92810102	        -19.76789253	         -2.47357491	        -17.60289017	         -5.62873912	        -15.74621424	          3.16634870	         -6.09170780	         -6.09170778	          0.53624149	          0.05803769	          0.96740249	          0.05342674	          0.86176859	          0.98622338	          0.03009190	          0.10854920	          0.71980295	          0.17626355	          0.92683206	          0.04022623	          0.98701020	          0.60426929	          0.05668207	          0.97475869	          0.98974019	          0.01217446	
          1.12933220	         -5.60545954	          3.03944316	          2.19744733	         26.40883874	        -21.03203464	         -1.01212433	        -16.94457338	         -8.06215437	        -18.38650828	          2.77962633	         -6.02803800	         -6.02803801	          0.62222553	          0.05584051	          0.97927994	          0.04595869	          0.85692745	          0.98988950	          0.02738373	          0.10048923	          0.72522466	          0.15308772	          0.88548897	          0.05014960	          0.96803235	          0.75236461	          0.06329073	          0.96265678	          0.98878161	          0.01128530	
